<svg width="503" height="518" viewBox="0 0 503 518" fill="none" xmlns="http://www.w3.org/2000/svg">
<g clip-path="url(#clip0_183_2)">
<path d="M157.956 349H75.956C69.0634 349 63.456 343.393 63.456 336.5V254.5C63.456 247.607 69.0634 242 75.956 242H157.956C164.849 242 170.456 247.607 170.456 254.5V336.5C170.456 343.393 164.849 349 157.956 349Z" fill="#3F3D56"/>
<path d="M127.008 255.554C132.012 252.939 133.949 246.763 131.334 241.759C131.071 241.255 130.763 240.792 130.433 240.352L144.024 149L123.932 149.129L115.547 238.807C112.073 241.843 110.982 246.958 113.213 251.228C115.828 256.232 122.004 258.168 127.008 255.554Z" fill="#FFB6B6"/>
<path d="M130.298 85.2385C130.298 85.2385 124.293 83.6046 123.42 96.7615C122.721 107.295 112.226 171.47 115.16 185.829C111.411 187.557 109.15 191.649 109.928 195.897L140.268 193.17C144.43 187.665 144.451 181.497 142.066 180.209L144.503 161.299L158.585 99.6988L134.66 86.3425L130.298 85.2385Z" fill="#E6E6E6"/>
<path d="M150.197 489.698L161.727 489.697L167.212 445.226L150.195 445.227L150.197 489.698Z" fill="#FFB6B6"/>
<path d="M165.563 490.736V482.919L162.532 483.105L150.194 483.836L147.338 484.011L145.155 510.189L145.038 511.592H153.225L153.488 510.198L154.677 503.863L157.747 510.198L158.419 511.592H180.124C181.42 511.592 182.599 511.085 183.466 510.247C184.412 509.36 184.997 508.103 184.997 506.709C185.913 502.431 167.863 493.182 165.563 490.736Z" fill="#2F2E41"/>
<path d="M99.5739 476.455L112.456 479L124.456 438L111.525 433.62L99.5739 476.455Z" fill="#FFB6B6"/>
<path d="M114.096 481.585L116.196 474.056L113.227 473.42L101.146 470.808L98.3488 470.209L89.21 494.837L88.7201 496.157L96.6054 498.357L97.2335 497.086L100.081 491.304L101.336 498.231L101.609 499.754L122.514 505.587C123.763 505.936 125.035 505.765 126.096 505.19C127.245 504.59 128.146 503.537 128.52 502.194C130.553 498.319 115.653 484.559 114.096 481.585Z" fill="#2F2E41"/>
<path d="M207.3 239.071L207.597 235.952L194.773 200.794L140.123 211.332C140.123 211.332 111.956 246.03 118.22 268.996C119.918 275.224 123.549 348.639 122.456 351C97.2821 405.372 104.315 443.725 104.315 443.725C104.315 443.725 112.271 450.663 125.9 454.103C129.456 455 156.497 333.023 156.497 333.023C156.497 333.023 155.305 340.635 153.644 352.208C148.513 387.963 140.452 459.942 147.614 463.669C157.094 468.602 166.163 467.687 166.163 467.687C166.163 467.687 195.719 378.878 189.456 358" fill="#2F2E41"/>
<path d="M180.456 88L163.577 69.8471L150.746 69.1011L133.456 87L127.045 105.081C119.869 122.513 118.227 141.731 122.343 160.127L132.191 204.14C132.191 204.14 133.708 209.326 129.733 209.949C125.759 210.572 126.235 218.217 126.235 218.217C126.235 218.217 127.045 224.843 123.185 225.427C119.326 226.01 109.034 226.01 118.04 237.588C127.045 249.167 198.272 205.376 198.272 205.376L198.617 151.094C198.617 151.094 218.68 124.147 197.074 108.714L180.456 88Z" fill="#E6E6E6"/>
<path d="M222.956 279H140.956C134.063 279 128.456 273.393 128.456 266.5V184.5C128.456 177.607 134.063 172 140.956 172H222.956C229.849 172 235.456 177.607 235.456 184.5V266.5C235.456 273.393 229.849 279 222.956 279Z" fill="#A463FF"/>
<path d="M490.5 107H408.5C401.607 107 396 101.393 396 94.5V12.5C396 5.60742 401.607 0 408.5 0H490.5C497.393 0 503 5.60742 503 12.5V94.5C503 101.393 497.393 107 490.5 107Z" fill="#A463FF"/>
<path d="M441.2 42.1C441.4 41.4 441.7 40.8333 442.1 40.4C442.5 39.9333 442.933 39.7 443.4 39.7C444.533 39.7 445.35 39.9167 445.85 40.35C446.35 40.7833 446.6 41.5333 446.6 42.6C446.6 42.9 446.367 43.75 445.9 45.15C444.867 48.3167 443.733 52.2333 442.5 56.9C442.2 57.9667 441.95 58.9 441.75 59.7C441.583 60.5 441.433 61.1667 441.3 61.7C440.5 65.1333 439.8 67.7167 439.2 69.45C439 69.95 438.65 70.35 438.15 70.65C437.65 70.9167 437.117 71.05 436.55 71.05C435.983 71.05 435.417 70.9333 434.85 70.7C434.317 70.4333 433.933 70.1333 433.7 69.8C432.667 67.7667 431.383 65 429.85 61.5C428.35 57.9667 427.183 54.8833 426.35 52.25C424.283 57.4833 422.433 62.5333 420.8 67.4C420.7 67.7 420.583 68.0333 420.45 68.4C420.35 68.7333 420.233 69.0833 420.1 69.45C419.867 69.95 419.533 70.35 419.1 70.65C418.667 70.9167 418.183 71.05 417.65 71.05C417.05 71.05 416.467 70.9333 415.9 70.7C415.333 70.4333 414.95 70.1333 414.75 69.8C414.317 69.0667 413.85 67.9333 413.35 66.4C412.883 64.8667 412.25 62.7167 411.45 59.95L410.2 55.7C409.333 52.9333 408.583 50.1 407.95 47.2C407.317 44.3 407 42.5667 407 42C407 41.3 407.35 40.75 408.05 40.35C408.75 39.9167 409.45 39.7 410.15 39.7C410.55 39.7 410.967 39.8333 411.4 40.1C411.833 40.3333 412.117 40.75 412.25 41.35C413.417 47.5833 415.133 54.8167 417.4 63.05C418.267 60.9833 419.217 58.4667 420.25 55.5C421.317 52.5333 422.333 49.65 423.3 46.85L423.8 45.35C423.933 44.85 424.267 44.4667 424.8 44.2C425.367 43.9 425.933 43.75 426.5 43.75C427.233 43.75 427.833 43.9333 428.3 44.3C428.767 44.6667 429.067 45.0667 429.2 45.5C429.233 45.6333 429.9 47.6167 431.2 51.45C432.5 55.2833 434.05 59.15 435.85 63.05C436.517 61.0833 437.317 57.9333 438.25 53.6L439 50.3C439.9 46.7667 440.633 44.0333 441.2 42.1ZM459.423 43.4C459.323 45.5333 459.273 47.5833 459.273 49.55C459.273 51.5833 459.407 54.5667 459.673 58.5C459.707 59.1 459.773 60.3167 459.873 62.15C459.973 63.95 460.023 65.6 460.023 67.1C460.357 67.0667 460.707 67.0167 461.073 66.95C461.473 66.8833 461.773 66.85 461.973 66.85C462.707 66.85 463.29 67.0333 463.723 67.4C464.157 67.7667 464.373 68.3333 464.373 69.1C464.373 69.6 464.173 69.9833 463.773 70.25C463.373 70.5167 462.673 70.7167 461.673 70.85C460.707 70.95 459.29 71 457.423 71C455.357 71 453.807 70.9333 452.773 70.8C451.74 70.6667 451.023 70.4167 450.623 70.05C450.223 69.65 450.023 69.0667 450.023 68.3C450.023 67.7333 450.207 67.35 450.573 67.15C450.94 66.95 451.457 66.85 452.123 66.85L453.173 66.9L454.823 67L454.573 61.1C454.373 57.9 454.273 54.9667 454.273 52.3C454.273 50.8667 454.323 48.9 454.423 46.4L454.523 43.65C453.39 43.7167 452.507 43.75 451.873 43.75C451.14 43.75 450.64 43.6167 450.373 43.35C450.14 43.0833 450.023 42.5333 450.023 41.7C450.023 40.7667 450.657 40.1667 451.923 39.9C453.223 39.6333 455.19 39.5 457.823 39.5C459.857 39.5 461.373 39.5667 462.373 39.7C463.407 39.8333 463.923 40.1333 463.923 40.6C463.923 41.7333 463.673 42.4833 463.173 42.85C462.707 43.1833 461.79 43.35 460.423 43.35L459.423 43.4ZM482.376 59.7C481.076 59.7 479.976 59.6667 479.076 59.6C478.209 59.5 477.059 59.35 475.626 59.15L475.576 64.4C475.542 65.3 475.526 66.5833 475.526 68.25C475.526 69.1167 475.276 69.8 474.776 70.3C474.309 70.7667 473.776 71 473.176 71C472.076 71 471.259 70.8667 470.726 70.6C470.192 70.3 469.926 69.7833 469.926 69.05C469.926 68.0833 470.009 66.7167 470.176 64.95C470.542 61.15 470.726 57.25 470.726 53.25C470.726 49.5167 470.609 46 470.376 42.7C470.409 42.2333 470.642 41.7 471.076 41.1C471.542 40.5 472.126 40.1667 472.826 40.1C473.592 40.1 474.809 39.9667 476.476 39.7C478.209 39.4333 479.526 39.3 480.426 39.3C483.159 39.3 485.276 39.5667 486.776 40.1C488.309 40.6333 489.842 41.5167 491.376 42.75C493.042 45.35 493.876 47.1833 493.876 48.25C493.876 50.4833 493.426 52.4667 492.526 54.2C491.626 55.9333 490.309 57.2833 488.576 58.25C486.842 59.2167 484.776 59.7 482.376 59.7ZM481.226 43.55C480.159 43.55 479.226 43.6167 478.426 43.75C477.659 43.85 476.726 44.0333 475.626 44.3C475.759 47.3667 475.826 49.6 475.826 51C475.826 52.4333 475.776 53.6333 475.676 54.6C477.109 54.9 478.242 55.1 479.076 55.2C479.909 55.2667 480.842 55.3 481.876 55.3C484.342 55.3 486.076 54.6667 487.076 53.4C488.109 52.1 488.626 50.6 488.626 48.9C488.626 48.4 488.476 47.7833 488.176 47.05C487.876 46.3167 487.609 45.8333 487.376 45.6C486.476 44.8 485.592 44.2667 484.726 44C483.892 43.7 482.726 43.55 481.226 43.55Z" fill="white"/>
<path d="M210.502 238.673C214.28 234.477 213.941 228.013 209.745 224.235C209.323 223.855 208.873 223.528 208.41 223.231L189.287 132.875L170.501 140.003L193.92 226.975C191.723 231.031 192.485 236.206 196.065 239.429C200.26 243.207 206.724 242.868 210.502 238.673Z" fill="#FFB6B6"/>
<path d="M172.574 87.5255C172.574 87.5255 178.244 84.9589 181.194 97.8104C183.557 108.099 204.108 169.794 203.49 184.437C207.466 185.548 210.348 189.229 210.254 193.546L179.867 195.671C174.883 190.896 173.883 184.81 176.033 183.159L170.625 164.876L146.941 106.293L168.443 89.308L172.574 87.5255Z" fill="#E6E6E6"/>
<path d="M163.487 57.2337C176.983 57.2337 187.924 46.2933 187.924 32.7975C187.924 19.3018 176.983 8.36133 163.487 8.36133C149.992 8.36133 139.051 19.3018 139.051 32.7975C139.051 46.2933 149.992 57.2337 163.487 57.2337Z" fill="#FFB6B6"/>
<path d="M186.344 31.8438C186.414 31.8438 186.584 31.8437 186.904 31.8538C187.834 31.9138 186.574 31.8637 186.344 31.8438Z" fill="#2F2E41"/>
<path d="M199.354 29.5137C199.174 29.9537 198.584 30.3137 197.754 30.6038C196.174 28.5937 194.124 26.9637 191.784 25.9537C192.834 27.6638 193.694 29.4837 194.334 31.3837C192.064 31.7137 189.534 31.8538 187.904 31.8637C187.514 31.8637 187.174 31.8637 186.904 31.8538C186.504 31.1437 185.864 29.9937 185.314 28.8037C185.264 32.0537 180.734 41.6337 181.104 49.7337C181.554 59.4237 182.064 69.9937 182.064 69.9937C180.434 70.4037 178.464 70.6937 176.214 70.8737C173.734 66.3237 171.894 61.2337 170.904 56.0737C170.794 55.5237 170.704 54.9737 170.614 54.4237C170.404 55.0537 170.204 55.6937 170.034 56.3437C169.284 59.0437 168.844 61.9537 168.704 64.9737C168.604 66.9637 168.644 68.9837 168.794 71.0337C156.454 73.5437 141.194 73.2837 130.154 67.1537C130.524 66.1437 130.804 65.1037 130.984 64.0437C131.584 60.5637 126.744 60.0737 123.524 62.2037C120.304 58.9737 117.864 54.8737 116.544 49.7437C137.584 40.5137 115.434 29.1537 131.684 12.7837C129.724 -1.43629 168.984 -5.54628 176.584 7.09374C178.244 5.83373 183.414 5.89373 185.614 6.81371C187.814 7.73369 189.514 9.28374 191.174 10.7837C192.284 11.8037 191.764 13.8337 191.054 15.3538C194.544 13.6837 202.334 22.3637 199.354 29.5137Z" fill="#2F2E41"/>
</g>
<defs>
<clipPath id="clip0_183_2">
<rect width="503" height="518" fill="white"/>
</clipPath>
</defs>
</svg>
